<?xml version="1.0"?>
<svg xmlns="http://www.w3.org/2000/svg" id="Layer" enable-background="new 0 0 64 64" height="512px" viewBox="0 0 64 64" width="512px" class=""><g><path d="m54 8h-11c-1.104 0-2 .896-2 2s.896 2 2 2h6.172l-14.586 14.586c-.781.781-.781 2.047 0 2.828.391.391.902.586 1.414.586s1.023-.195 1.414-.586l14.586-14.586v6.172c0 1.104.896 2 2 2s2-.896 2-2v-11c0-1.104-.896-2-2-2z" data-original="#000000" class="active-path" data-old_color="#000000" fill="#FFFFFF"/><path d="m54 41c-1.104 0-2 .896-2 2v6.172l-14.586-14.586c-.781-.781-2.047-.781-2.828 0s-.781 2.047 0 2.828l14.586 14.586h-6.172c-1.104 0-2 .896-2 2s.896 2 2 2h11c1.104 0 2-.896 2-2v-11c0-1.104-.896-2-2-2z" data-original="#000000" class="active-path" data-old_color="#000000" fill="#FFFFFF"/><path d="m14.828 12h6.172c1.104 0 2-.896 2-2s-.896-2-2-2h-11c-1.104 0-2 .896-2 2v11c0 1.104.896 2 2 2s2-.896 2-2v-6.172l14.586 14.586c.391.391.902.586 1.414.586s1.023-.195 1.414-.586c.781-.781.781-2.047 0-2.828z" data-original="#000000" class="active-path" data-old_color="#000000" fill="#FFFFFF"/><path d="m26.586 34.586-14.586 14.586v-6.172c0-1.104-.896-2-2-2s-2 .896-2 2v11c0 1.104.896 2 2 2h11c1.104 0 2-.896 2-2s-.896-2-2-2h-6.172l14.586-14.586c.781-.781.781-2.047 0-2.828s-2.047-.781-2.828 0z" data-original="#000000" class="active-path" data-old_color="#000000" fill="#FFFFFF"/></g> </svg>
